HIERARCHY
ROOT Hips
{
	OFFSET 0.000000 0.000000 0.000000
	CHANNELS 6 Xposition Yposition Zposition Xrotation Yrotation Zrotation
	JOINT LeftUpLeg_virtual
	{
		OFFSET 0.000000 0.000000 0.000000
		CHANNELS 3 Xrotation Yrotation Zrotation
		JOINT LeftUpLeg
		{
			OFFSET 15.427100 -6.655098 0.678600
			CHANNELS 3 Xrotation Yrotation Zrotation
			JOINT LeftLeg
			{
				OFFSET 4.081073 -39.591068 13.024000
				CHANNELS 3 Xrotation Yrotation Zrotation
				JOINT LeftFoot
				{
					OFFSET -4.081074 -37.707932 -15.979700
					CHANNELS 3 Xrotation Yrotation Zrotation
					JOINT LeftToeBase
					{
						OFFSET 5.346399 -15.068900 20.645000
						CHANNELS 3 Xrotation Yrotation Zrotation
						JOINT LeftToe_End
						{
							OFFSET 2.754700 0.931300 11.300900
							CHANNELS 3 Xrotation Yrotation Zrotation
							End Site
							{
								OFFSET 0 0 0
							}
						}
					}
				}
			}
		}
	}
	JOINT RightUpLeg_virtual
	{
		OFFSET 0.000000 0.000000 0.000000
		CHANNELS 3 Xrotation Yrotation Zrotation
		JOINT RightUpLeg
		{
			OFFSET -15.569500 -6.655098 0.678600
			CHANNELS 3 Xrotation Yrotation Zrotation
			JOINT RightLeg
			{
				OFFSET -4.081825 -39.591045 13.023800
				CHANNELS 3 Xrotation Yrotation Zrotation
				JOINT RightFoot
				{
					OFFSET 4.081824 -37.707954 -15.979600
					CHANNELS 3 Xrotation Yrotation Zrotation
					JOINT RightToeBase
					{
						OFFSET -5.346400 -15.068900 20.645000
						CHANNELS 3 Xrotation Yrotation Zrotation
						JOINT RightToe_End
						{
							OFFSET -2.754700 0.931300 11.300900
							CHANNELS 3 Xrotation Yrotation Zrotation
							End Site
							{
								OFFSET 0 0 0
							}
						}
					}
				}
			}
		}
	}
	JOINT Spine_virtual
	{
		OFFSET 0.000000 0.000000 0.000000
		CHANNELS 3 Xrotation Yrotation Zrotation
		JOINT Spine
		{
			OFFSET -0.279200 12.230698 -2.892100
			CHANNELS 3 Xrotation Yrotation Zrotation
			JOINT Spine1
			{
				OFFSET -0.232667 10.192268 -1.242267
				CHANNELS 3 Xrotation Yrotation Zrotation
				JOINT Spine1_split
				{
					OFFSET -0.232667 10.192268 -1.242267
					CHANNELS 3 Xrotation Yrotation Zrotation
					JOINT Spine2
					{
						OFFSET -0.232667 10.192268 -1.242267
						CHANNELS 3 Xrotation Yrotation Zrotation
						JOINT Neck_virtual
						{
							OFFSET 0.000000 0.000000 0.000000
							CHANNELS 3 Xrotation Yrotation Zrotation
							JOINT Neck
							{
								OFFSET -0.418800 17.814194 8.416900
								CHANNELS 3 Xrotation Yrotation Zrotation
								JOINT Head
								{
									OFFSET 0.000000 7.031097 3.806800
									CHANNELS 3 Xrotation Yrotation Zrotation
									JOINT HeadTop_End
									{
										OFFSET 0.000000 24.646606 12.978600
										CHANNELS 3 Xrotation Yrotation Zrotation
										End Site
										{
											OFFSET 0 0 0
										}
									}
								}
							}
						}
						JOINT LeftShoulder_virtual
						{
							OFFSET 0.000000 0.000000 0.000000
							CHANNELS 3 Xrotation Yrotation Zrotation
							JOINT LeftShoulder
							{
								OFFSET 8.476499 7.247704 -3.868750
								CHANNELS 3 Xrotation Yrotation Zrotation
								JOINT LeftShoulder_split
								{
									OFFSET 8.476499 7.247704 -3.868750
									CHANNELS 3 Xrotation Yrotation Zrotation
									JOINT LeftArm
									{
										OFFSET 9.308998 -2.777710 0.208600
										CHANNELS 3 Xrotation Yrotation Zrotation
										JOINT LeftForeArm
										{
											OFFSET 29.972298 0.000000 0.000000
											CHANNELS 3 Xrotation Yrotation Zrotation
											JOINT LeftHand
											{
												OFFSET 26.026505 0.000000 0.000000
												CHANNELS 3 Xrotation Yrotation Zrotation
												End Site
												{
													OFFSET 0 0 0
												}
											}
										}
									}
								}
							}
						}
						JOINT RightShoulder_virtual
						{
							OFFSET 0.000000 0.000000 0.000000
							CHANNELS 3 Xrotation Yrotation Zrotation
							JOINT RightShoulder
							{
								OFFSET -7.570500 7.247704 -3.868750
								CHANNELS 3 Xrotation Yrotation Zrotation
								JOINT RightShoulder_split
								{
									OFFSET -7.570500 7.247704 -3.868750
									CHANNELS 3 Xrotation Yrotation Zrotation
									JOINT RightArm
									{
										OFFSET -9.308998 -2.777710 0.208500
										CHANNELS 3 Xrotation Yrotation Zrotation
										JOINT RightForeArm
										{
											OFFSET -29.972300 0.000000 0.000000
											CHANNELS 3 Xrotation Yrotation Zrotation
											JOINT RightHand
											{
												OFFSET -26.026505 0.000000 0.000000
												CHANNELS 3 Xrotation Yrotation Zrotation
												End Site
												{
													OFFSET 0 0 0
												}
											}
										}
									}
								}
							}
						}
					}
				}
			}
		}
	}
}
MOTION
Frames: 6
Frame Time: 0.03333333
7.063381 51.828423 120.501587 0.000000 0.000000 0.000000 14.933816 -48.396518 21.245488 -53.867923 -29.372245 47.049430 63.275228 -26.605417 -15.816886 7.134561 9.210165 -28.456697 -5.714997 -8.003336 -5.598397 0.000000 0.000000 0.000000 10.540512 -46.905016 19.886125 -67.592337 26.946235 -27.573450 89.344994 14.765781 1.081188 -18.845011 -13.741395 34.164476 8.467440 13.060153 -12.064923 0.000000 0.000000 0.000000 8.185200 -43.784791 17.328007 29.015757 6.170354 -10.346998 4.088938 -3.577839 -1.592874 0.332556 -0.495305 0.253808 0.000000 0.000000 0.000000 3.901514 0.238541 -1.097562 -4.357780 26.179668 -5.038159 -38.659171 14.016687 -1.664220 0.000000 0.000000 0.000000 5.730881 -2.523268 -2.521838 5.297521 -21.234087 4.752549 -3.098591 7.685047 -5.308958 -25.870373 11.054311 -31.578925 -28.101799 -63.666078 -17.781296 0.000000 0.000000 0.000000 8.629854 -0.077051 -0.351277 -1.642996 28.980769 10.282443 13.555826 2.623704 8.647623 -67.215735 -11.361199 21.921922 -15.696186 47.115140 12.314598 0.000000 0.000000 0.000000 
7.249687 50.776764 123.211609 0.000000 0.000000 0.000000 15.380478 -47.367167 21.653890 -55.024950 -28.726990 46.280115 64.531498 -25.270443 -17.360227 3.959786 11.760001 -25.583857 -4.604497 -7.707556 -8.133045 0.000000 0.000000 0.000000 11.177096 -46.587375 20.383516 -66.388947 26.705526 -28.789107 88.052292 14.466662 1.089008 -20.707235 -14.970576 38.292465 9.044482 12.859826 -10.717796 0.000000 0.000000 0.000000 7.576585 -42.745448 16.902606 30.130997 5.511774 -12.080695 4.422920 -3.103555 -0.675554 0.316393 -0.407753 0.293425 0.000000 0.000000 0.000000 4.303284 0.739494 -0.256331 -7.388004 27.519898 -5.741937 -37.845532 14.936060 -0.971014 0.000000 0.000000 0.000000 6.525023 -2.024125 -1.489095 5.322248 -22.340444 3.322559 -4.030488 6.015325 -4.825837 -24.098461 9.937841 -32.326903 -27.610430 -62.392351 -15.613548 0.000000 0.000000 0.000000 8.964012 0.257571 0.401438 -1.473678 28.911334 10.750743 13.183512 3.920489 9.467866 -65.537304 -9.132889 24.900677 -14.931039 49.184472 12.089542 0.000000 0.000000 0.000000 
6.999573 50.697113 125.384850 0.000000 0.000000 0.000000 15.427943 -47.061458 21.781407 -54.209166 -26.208175 45.011411 64.127410 -22.777839 -18.989700 -1.115504 14.627397 -20.031304 -4.247599 -7.405093 -10.698488 0.000000 0.000000 0.000000 11.345641 -45.982176 20.520043 -64.419209 25.066174 -29.842172 87.079994 14.447032 0.448935 -23.404126 -16.289091 40.990018 10.137496 12.617213 -8.803517 0.000000 0.000000 0.000000 7.597120 -41.623873 16.586660 30.266207 5.174978 -12.817184 4.598318 -2.682795 -0.150854 0.300758 -0.275526 0.264309 0.000000 0.000000 0.000000 4.740785 1.111105 0.203133 -10.087536 28.819590 -6.371238 -37.875892 15.531425 -0.543510 0.000000 0.000000 0.000000 7.044907 -1.587768 -0.884917 4.930446 -22.754265 1.243886 -4.625719 4.366080 -4.293286 -24.192525 10.683972 -32.455703 -25.673416 -63.428121 -12.607961 0.000000 0.000000 0.000000 9.173117 0.460657 0.775065 -1.465581 27.915533 11.096321 12.626977 4.575846 9.836797 -64.867536 -8.009392 26.778959 -15.172415 54.195225 12.930363 0.000000 0.000000 0.000000 
6.553012 51.647255 126.940598 0.000000 0.000000 0.000000 15.173981 -47.384697 21.687024 -52.197392 -22.485427 43.377568 62.643633 -20.054448 -20.429340 -6.852337 16.353577 -13.452653 -3.867536 -7.166936 -12.871976 0.000000 0.000000 0.000000 11.135789 -45.222382 20.273253 -61.877484 22.364821 -30.729943 86.117839 14.606679 -0.711122 -26.146509 -17.345528 41.722743 10.891579 12.374798 -6.483402 0.000000 0.000000 0.000000 8.437287 -40.504917 16.500979 29.518046 5.026009 -12.782690 4.621796 -2.414277 -0.004866 0.221178 -0.216861 0.223789 0.000000 0.000000 0.000000 5.257277 1.280204 0.314540 -12.439181 29.980716 -6.795729 -39.128952 15.721256 -0.388342 0.000000 0.000000 0.000000 7.313933 -1.291057 -0.680250 4.177870 -22.661268 -1.250453 -4.787802 2.827711 -3.620562 -25.523889 12.000615 -32.280485 -20.892695 -65.387102 -7.646439 0.000000 0.000000 0.000000 9.280520 0.478889 0.820551 -1.587383 25.966793 11.333224 11.797402 4.385953 9.935308 -64.757816 -8.255276 27.983343 -16.210703 60.335309 14.420642 0.000000 0.000000 0.000000 
6.022110 53.521759 128.322479 0.000000 0.000000 0.000000 14.642956 -47.642598 21.321815 -49.663111 -18.484493 41.583950 60.448410 -18.008916 -21.481358 -11.881704 16.269676 -7.582147 -2.935803 -7.129865 -14.044254 0.000000 0.000000 0.000000 10.698013 -44.737319 19.656605 -59.020751 18.974441 -31.521337 84.375861 14.853262 -2.095990 -27.776112 -17.777722 40.851700 10.489183 12.196869 -3.993081 0.000000 0.000000 0.000000 9.566784 -39.437277 16.509600 28.143004 4.906614 -12.302579 4.594177 -2.310869 -0.193735 0.185756 -0.226936 0.159018 0.000000 0.000000 0.000000 5.912750 1.273990 0.140110 -14.660103 30.749853 -6.577306 -41.416782 15.420346 -0.393563 0.000000 0.000000 0.000000 7.440308 -1.197328 -0.790107 3.250102 -22.216036 -3.541588 -4.447277 1.580634 -2.667127 -27.457777 12.832698 -31.968332 -12.245809 -66.206451 0.165662 0.000000 0.000000 0.000000 9.349644 0.338393 0.619045 -1.788781 23.374779 11.439903 10.313489 3.684435 10.156460 -64.667924 -9.834809 28.786498 -17.786841 66.161522 16.204146 0.000000 0.000000 0.000000 
5.570036 56.112320 129.464005 0.000000 0.000000 0.000000 13.716890 -47.602218 20.592896 -47.238244 -14.780073 39.663561 57.959756 -16.952021 -21.902460 -14.894846 14.866308 -3.727763 -0.841990 -7.329964 -14.168316 0.000000 0.000000 0.000000 10.101409 -44.748230 18.698370 -56.087195 15.153316 -32.251812 81.358857 15.339102 -3.469479 -27.755725 -17.328234 38.962729 8.793737 12.062625 -1.701154 0.000000 0.000000 0.000000 10.612053 -38.459976 16.568985 26.478704 4.741768 -11.724095 4.608535 -2.327399 -0.660077 0.126917 -0.266324 0.082394 0.000000 0.000000 0.000000 6.751568 1.100134 -0.273346 -16.999205 30.784059 -5.254372 -43.974018 14.365944 -0.421185 0.000000 0.000000 0.000000 7.540907 -1.298783 -1.130709 2.323544 -21.499880 -5.056125 -3.463823 0.594880 -1.587688 -29.569351 12.431135 -31.723688 -1.816613 -63.944129 8.787866 0.000000 0.000000 0.000000 9.464571 0.053886 0.228506 -2.080871 20.549973 11.336071 8.451201 3.038608 9.849403 -63.958008 -12.319781 29.125060 -20.061365 71.414252 18.427172 0.000000 0.000000 0.000000 
